<mxfile host="app.diagrams.net" modified="2024-03-17T13:17:27.040Z" agent="Mozilla/5.0 (Windows NT 10.0; Win64; x64) AppleWebKit/537.36 (KHTML, like Gecko) Chrome/122.0.0.0 Safari/537.36" etag="DCajVDyLGo8hcXFTOV0f" version="24.0.7" type="device">
  <diagram name="Страница — 1" id="iVYknI_D39X-pVrLQnII">
    <mxGraphModel dx="1221" dy="647" grid="1" gridSize="10" guides="1" tooltips="1" connect="1" arrows="1" fold="1" page="1" pageScale="1" pageWidth="827" pageHeight="1169" math="0" shadow="0">
      <root>
        <mxCell id="0" />
        <mxCell id="1" parent="0" />
        <mxCell id="RIBiu-XOUktb5C3K1-Oq-1" value="Авторизованный&lt;div&gt;пользователь&lt;/div&gt;" style="shape=umlActor;verticalLabelPosition=bottom;verticalAlign=top;html=1;outlineConnect=0;" parent="1" vertex="1">
          <mxGeometry x="70" y="470" width="30" height="60" as="geometry" />
        </mxCell>
        <mxCell id="RIBiu-XOUktb5C3K1-Oq-2" value="Преподаватель" style="shape=umlActor;verticalLabelPosition=bottom;verticalAlign=top;html=1;outlineConnect=0;" parent="1" vertex="1">
          <mxGeometry x="190" y="470" width="30" height="60" as="geometry" />
        </mxCell>
        <mxCell id="RIBiu-XOUktb5C3K1-Oq-3" value="" style="endArrow=block;html=1;rounded=0;endFill=0;" parent="1" source="RIBiu-XOUktb5C3K1-Oq-2" target="RIBiu-XOUktb5C3K1-Oq-1" edge="1">
          <mxGeometry width="50" height="50" relative="1" as="geometry">
            <mxPoint x="390" y="580" as="sourcePoint" />
            <mxPoint x="440" y="530" as="targetPoint" />
          </mxGeometry>
        </mxCell>
        <mxCell id="RIBiu-XOUktb5C3K1-Oq-8" style="edgeStyle=orthogonalEdgeStyle;rounded=0;orthogonalLoop=1;jettySize=auto;html=1;exitX=0;exitY=0.5;exitDx=0;exitDy=0;startArrow=classic;startFill=1;endArrow=none;endFill=0;" parent="1" source="RIBiu-XOUktb5C3K1-Oq-7" target="RIBiu-XOUktb5C3K1-Oq-2" edge="1">
          <mxGeometry relative="1" as="geometry" />
        </mxCell>
        <mxCell id="RIBiu-XOUktb5C3K1-Oq-7" value="Взаимодействие с заданиями/проектами" style="ellipse;whiteSpace=wrap;html=1;" parent="1" vertex="1">
          <mxGeometry x="294" y="460" width="136" height="80" as="geometry" />
        </mxCell>
        <mxCell id="RIBiu-XOUktb5C3K1-Oq-16" value="" style="edgeStyle=orthogonalEdgeStyle;rounded=0;orthogonalLoop=1;jettySize=auto;html=1;startArrow=classic;startFill=1;endArrow=none;endFill=0;dashed=1;" parent="1" source="RIBiu-XOUktb5C3K1-Oq-9" target="RIBiu-XOUktb5C3K1-Oq-15" edge="1">
          <mxGeometry relative="1" as="geometry" />
        </mxCell>
        <mxCell id="RIBiu-XOUktb5C3K1-Oq-30" value="&amp;lt;&amp;lt;Extended&amp;gt;&amp;gt;" style="edgeLabel;html=1;align=center;verticalAlign=middle;resizable=0;points=[];" parent="RIBiu-XOUktb5C3K1-Oq-16" vertex="1" connectable="0">
          <mxGeometry x="0.0944" y="-3" relative="1" as="geometry">
            <mxPoint x="-3" as="offset" />
          </mxGeometry>
        </mxCell>
        <mxCell id="RIBiu-XOUktb5C3K1-Oq-19" value="" style="edgeStyle=orthogonalEdgeStyle;rounded=0;orthogonalLoop=1;jettySize=auto;html=1;dashed=1;startArrow=classic;startFill=1;endArrow=none;endFill=0;" parent="1" source="RIBiu-XOUktb5C3K1-Oq-9" target="RIBiu-XOUktb5C3K1-Oq-18" edge="1">
          <mxGeometry relative="1" as="geometry" />
        </mxCell>
        <mxCell id="RIBiu-XOUktb5C3K1-Oq-29" value="&amp;lt;&amp;lt;Extended&amp;gt;&amp;gt;" style="edgeLabel;html=1;align=center;verticalAlign=middle;resizable=0;points=[];" parent="RIBiu-XOUktb5C3K1-Oq-19" vertex="1" connectable="0">
          <mxGeometry x="0.1139" y="3" relative="1" as="geometry">
            <mxPoint x="-5" y="-7" as="offset" />
          </mxGeometry>
        </mxCell>
        <mxCell id="RIBiu-XOUktb5C3K1-Oq-9" value="Создать/удалить/изменить задание/проект" style="ellipse;whiteSpace=wrap;html=1;" parent="1" vertex="1">
          <mxGeometry x="545" y="310" width="140" height="80" as="geometry" />
        </mxCell>
        <mxCell id="RIBiu-XOUktb5C3K1-Oq-10" value="Просмотреть задание/проект" style="ellipse;whiteSpace=wrap;html=1;" parent="1" vertex="1">
          <mxGeometry x="540" y="460" width="150" height="80" as="geometry" />
        </mxCell>
        <mxCell id="RIBiu-XOUktb5C3K1-Oq-21" value="" style="edgeStyle=orthogonalEdgeStyle;rounded=0;orthogonalLoop=1;jettySize=auto;html=1;dashed=1;" parent="1" source="RIBiu-XOUktb5C3K1-Oq-11" target="RIBiu-XOUktb5C3K1-Oq-20" edge="1">
          <mxGeometry relative="1" as="geometry" />
        </mxCell>
        <mxCell id="RIBiu-XOUktb5C3K1-Oq-33" value="&amp;lt;&amp;lt;Extended&amp;gt;&amp;gt;" style="edgeLabel;html=1;align=center;verticalAlign=middle;resizable=0;points=[];" parent="RIBiu-XOUktb5C3K1-Oq-21" vertex="1" connectable="0">
          <mxGeometry x="-0.3111" y="-1" relative="1" as="geometry">
            <mxPoint x="247" y="-11" as="offset" />
          </mxGeometry>
        </mxCell>
        <mxCell id="RIBiu-XOUktb5C3K1-Oq-36" value="&amp;lt;&amp;lt;Include&amp;gt;&amp;gt;" style="edgeLabel;html=1;align=center;verticalAlign=middle;resizable=0;points=[];" parent="RIBiu-XOUktb5C3K1-Oq-21" vertex="1" connectable="0">
          <mxGeometry x="-0.2111" y="-1" relative="1" as="geometry">
            <mxPoint x="3" y="-11" as="offset" />
          </mxGeometry>
        </mxCell>
        <mxCell id="RIBiu-XOUktb5C3K1-Oq-11" value="Проверить состояние выполнения задания/проекта" style="ellipse;whiteSpace=wrap;html=1;" parent="1" vertex="1">
          <mxGeometry x="535" y="640" width="160" height="80" as="geometry" />
        </mxCell>
        <mxCell id="RIBiu-XOUktb5C3K1-Oq-12" value="" style="endArrow=none;html=1;rounded=0;entryX=0;entryY=0.5;entryDx=0;entryDy=0;exitX=1;exitY=0.5;exitDx=0;exitDy=0;startArrow=classic;startFill=1;dashed=1;" parent="1" source="RIBiu-XOUktb5C3K1-Oq-7" target="RIBiu-XOUktb5C3K1-Oq-10" edge="1">
          <mxGeometry width="50" height="50" relative="1" as="geometry">
            <mxPoint x="330" y="540" as="sourcePoint" />
            <mxPoint x="380" y="490" as="targetPoint" />
          </mxGeometry>
        </mxCell>
        <mxCell id="RIBiu-XOUktb5C3K1-Oq-31" value="&amp;lt;&amp;lt;Extended&amp;gt;&amp;gt;" style="edgeLabel;html=1;align=center;verticalAlign=middle;resizable=0;points=[];" parent="RIBiu-XOUktb5C3K1-Oq-12" vertex="1" connectable="0">
          <mxGeometry x="0.0283" y="-1" relative="1" as="geometry">
            <mxPoint y="-11" as="offset" />
          </mxGeometry>
        </mxCell>
        <mxCell id="RIBiu-XOUktb5C3K1-Oq-13" value="" style="endArrow=none;html=1;rounded=0;entryX=0;entryY=1;entryDx=0;entryDy=0;exitX=1;exitY=0;exitDx=0;exitDy=0;dashed=1;startArrow=classic;startFill=1;" parent="1" source="RIBiu-XOUktb5C3K1-Oq-7" target="RIBiu-XOUktb5C3K1-Oq-9" edge="1">
          <mxGeometry width="50" height="50" relative="1" as="geometry">
            <mxPoint x="330" y="540" as="sourcePoint" />
            <mxPoint x="380" y="490" as="targetPoint" />
          </mxGeometry>
        </mxCell>
        <mxCell id="RIBiu-XOUktb5C3K1-Oq-28" value="&amp;lt;&amp;lt;Extended&amp;gt;&amp;gt;" style="edgeLabel;html=1;align=center;verticalAlign=middle;resizable=0;points=[];" parent="RIBiu-XOUktb5C3K1-Oq-13" vertex="1" connectable="0">
          <mxGeometry x="0.1213" y="1" relative="1" as="geometry">
            <mxPoint as="offset" />
          </mxGeometry>
        </mxCell>
        <mxCell id="RIBiu-XOUktb5C3K1-Oq-14" value="" style="endArrow=none;html=1;rounded=0;entryX=0;entryY=0;entryDx=0;entryDy=0;exitX=1;exitY=1;exitDx=0;exitDy=0;dashed=1;startArrow=classic;startFill=1;" parent="1" source="RIBiu-XOUktb5C3K1-Oq-7" target="RIBiu-XOUktb5C3K1-Oq-11" edge="1">
          <mxGeometry width="50" height="50" relative="1" as="geometry">
            <mxPoint x="330" y="540" as="sourcePoint" />
            <mxPoint x="380" y="490" as="targetPoint" />
          </mxGeometry>
        </mxCell>
        <mxCell id="RIBiu-XOUktb5C3K1-Oq-32" value="&amp;lt;&amp;lt;Extended&amp;gt;&amp;gt;" style="edgeLabel;html=1;align=center;verticalAlign=middle;resizable=0;points=[];" parent="RIBiu-XOUktb5C3K1-Oq-14" vertex="1" connectable="0">
          <mxGeometry x="-0.032" y="1" relative="1" as="geometry">
            <mxPoint as="offset" />
          </mxGeometry>
        </mxCell>
        <mxCell id="RIBiu-XOUktb5C3K1-Oq-15" value="Отписать или приписать учащихся к заданию/проекту" style="ellipse;whiteSpace=wrap;html=1;" parent="1" vertex="1">
          <mxGeometry x="527.5" y="150" width="175" height="80" as="geometry" />
        </mxCell>
        <mxCell id="RIBiu-XOUktb5C3K1-Oq-18" value="Прикрепить/открепить файл к заданию/проекту" style="ellipse;whiteSpace=wrap;html=1;" parent="1" vertex="1">
          <mxGeometry x="775" y="310" width="155" height="80" as="geometry" />
        </mxCell>
        <mxCell id="RIBiu-XOUktb5C3K1-Oq-23" value="" style="edgeStyle=orthogonalEdgeStyle;rounded=0;orthogonalLoop=1;jettySize=auto;html=1;startArrow=classic;startFill=1;endArrow=none;endFill=0;dashed=1;" parent="1" source="RIBiu-XOUktb5C3K1-Oq-20" target="RIBiu-XOUktb5C3K1-Oq-22" edge="1">
          <mxGeometry relative="1" as="geometry">
            <Array as="points">
              <mxPoint x="950" y="680" />
              <mxPoint x="950" y="680" />
            </Array>
          </mxGeometry>
        </mxCell>
        <mxCell id="RIBiu-XOUktb5C3K1-Oq-20" value="Проверить прогресс группы" style="ellipse;whiteSpace=wrap;html=1;" parent="1" vertex="1">
          <mxGeometry x="775" y="640" width="160" height="80" as="geometry" />
        </mxCell>
        <mxCell id="RIBiu-XOUktb5C3K1-Oq-22" value="Проверить прогресс конкретного учащегося" style="ellipse;whiteSpace=wrap;html=1;" parent="1" vertex="1">
          <mxGeometry x="1015" y="640" width="160" height="80" as="geometry" />
        </mxCell>
        <mxCell id="RIBiu-XOUktb5C3K1-Oq-24" value="Оценить работу учащегося" style="ellipse;whiteSpace=wrap;html=1;" parent="1" vertex="1">
          <mxGeometry x="1241" y="545" width="120" height="80" as="geometry" />
        </mxCell>
        <mxCell id="RIBiu-XOUktb5C3K1-Oq-25" value="Прокомментировать работу учащегося" style="ellipse;whiteSpace=wrap;html=1;" parent="1" vertex="1">
          <mxGeometry x="1241" y="730" width="120" height="80" as="geometry" />
        </mxCell>
        <mxCell id="RIBiu-XOUktb5C3K1-Oq-26" value="" style="endArrow=none;html=1;rounded=0;entryX=0;entryY=1;entryDx=0;entryDy=0;exitX=1;exitY=0;exitDx=0;exitDy=0;startArrow=classic;startFill=1;strokeColor=default;dashed=1;" parent="1" source="RIBiu-XOUktb5C3K1-Oq-22" target="RIBiu-XOUktb5C3K1-Oq-24" edge="1">
          <mxGeometry width="50" height="50" relative="1" as="geometry">
            <mxPoint x="770" y="530" as="sourcePoint" />
            <mxPoint x="820" y="480" as="targetPoint" />
          </mxGeometry>
        </mxCell>
        <mxCell id="RIBiu-XOUktb5C3K1-Oq-34" value="&amp;lt;&amp;lt;Extended&amp;gt;&amp;gt;" style="edgeLabel;html=1;align=center;verticalAlign=middle;resizable=0;points=[];" parent="RIBiu-XOUktb5C3K1-Oq-26" vertex="1" connectable="0">
          <mxGeometry x="0.0368" y="-2" relative="1" as="geometry">
            <mxPoint as="offset" />
          </mxGeometry>
        </mxCell>
        <mxCell id="RIBiu-XOUktb5C3K1-Oq-27" value="" style="endArrow=none;html=1;rounded=0;entryX=0;entryY=0;entryDx=0;entryDy=0;exitX=1;exitY=1;exitDx=0;exitDy=0;startArrow=classic;startFill=1;dashed=1;" parent="1" source="RIBiu-XOUktb5C3K1-Oq-22" target="RIBiu-XOUktb5C3K1-Oq-25" edge="1">
          <mxGeometry width="50" height="50" relative="1" as="geometry">
            <mxPoint x="770" y="530" as="sourcePoint" />
            <mxPoint x="820" y="480" as="targetPoint" />
          </mxGeometry>
        </mxCell>
        <mxCell id="RIBiu-XOUktb5C3K1-Oq-35" value="&amp;lt;&amp;lt;Extended&amp;gt;&amp;gt;" style="edgeLabel;html=1;align=center;verticalAlign=middle;resizable=0;points=[];" parent="RIBiu-XOUktb5C3K1-Oq-27" vertex="1" connectable="0">
          <mxGeometry x="-0.131" y="2" relative="1" as="geometry">
            <mxPoint x="1" y="-1" as="offset" />
          </mxGeometry>
        </mxCell>
      </root>
    </mxGraphModel>
  </diagram>
</mxfile>
